<svg width="42" height="42" viewBox="0 0 42 42" fill="none" xmlns="http://www.w3.org/2000/svg">
<path d="M0 8C0 3.58172 3.58172 0 8 0H34C38.4183 0 42 3.58172 42 8V34C42 38.4183 38.4183 42 34 42H8C3.58172 42 0 38.4183 0 34V8Z" fill="#D13900"/>
<path d="M21 22.8334L24.6667 19.1667" stroke="white" stroke-width="1.5" stroke-linecap="round" stroke-linejoin="round"/>
<path d="M13.0618 27.4167C12.2572 26.0232 11.8336 24.4424 11.8335 22.8333C11.8334 21.2241 12.257 19.6434 13.0615 18.2498C13.866 16.8562 15.0232 15.699 16.4167 14.8944C17.8103 14.0898 19.391 13.6663 21.0002 13.6663C22.6093 13.6663 24.1901 14.0898 25.5836 14.8944C26.9771 15.699 28.1343 16.8562 28.9388 18.2498C29.7434 19.6434 30.1669 21.2241 30.1668 22.8333C30.1668 24.4424 29.7431 26.0232 28.9385 27.4167" stroke="white" stroke-width="1.5" stroke-linecap="round" stroke-linejoin="round"/>
</svg>
