<svg width="48" height="48" viewBox="0 0 48 48" fill="none" xmlns="http://www.w3.org/2000/svg">
<mask id="path-1-inside-1_398_1223" fill="white">
<path d="M0 16C0 7.16344 7.16344 0 16 0H32C40.8366 0 48 7.16344 48 16V32C48 40.8366 40.8366 48 32 48H16C7.16344 48 0 40.8366 0 32V16Z"/>
</mask>
<path d="M0 16C0 7.16344 7.16344 0 16 0H32C40.8366 0 48 7.16344 48 16V32C48 40.8366 40.8366 48 32 48H16C7.16344 48 0 40.8366 0 32V16Z" fill="white"/>
<path d="M16 0V1H32V0V-1H16V0ZM48 16H47V32H48H49V16H48ZM32 48V47H16V48V49H32V48ZM0 32H1V16H0H-1V32H0ZM16 48V47C7.71573 47 1 40.2843 1 32H0H-1C-1 41.3888 6.61116 49 16 49V48ZM48 32H47C47 40.2843 40.2843 47 32 47V48V49C41.3888 49 49 41.3888 49 32H48ZM32 0V1C40.2843 1 47 7.71573 47 16H48H49C49 6.61116 41.3888 -1 32 -1V0ZM16 0V-1C6.61116 -1 -1 6.61116 -1 16H0H1C1 7.71573 7.71573 1 16 1V0Z" fill="#D40707" mask="url(#path-1-inside-1_398_1223)"/>
<path d="M17.3332 25.6667C17.1755 25.6672 17.0209 25.623 16.8874 25.5391C16.7538 25.4553 16.6468 25.3353 16.5787 25.193C16.5106 25.0508 16.4843 24.8921 16.5028 24.7355C16.5213 24.5789 16.5839 24.4308 16.6832 24.3083L24.9332 15.8083C24.9951 15.7369 25.0795 15.6886 25.1724 15.6714C25.2653 15.6543 25.3613 15.6692 25.4447 15.7137C25.528 15.7583 25.5937 15.8299 25.631 15.9168C25.6683 16.0036 25.675 16.1005 25.6499 16.1917L24.0499 21.2083C24.0027 21.3346 23.9869 21.4704 24.0037 21.6042C24.0206 21.7379 24.0696 21.8656 24.1467 21.9762C24.2237 22.0868 24.3264 22.1771 24.446 22.2393C24.5656 22.3015 24.6984 22.3338 24.8332 22.3333H30.6666C30.8243 22.3328 30.9789 22.377 31.1124 22.4608C31.246 22.5447 31.3531 22.6647 31.4211 22.8069C31.4892 22.9492 31.5155 23.1078 31.497 23.2644C31.4785 23.4211 31.4159 23.5692 31.3166 23.6917L23.0666 32.1917C23.0047 32.2631 22.9204 32.3114 22.8274 32.3285C22.7345 32.3457 22.6385 32.3308 22.5551 32.2862C22.4718 32.2417 22.4061 32.1701 22.3688 32.0832C22.3315 31.9964 22.3248 31.8995 22.3499 31.8083L23.9499 26.7917C23.9971 26.6654 24.0129 26.5296 23.9961 26.3958C23.9792 26.2621 23.9302 26.1344 23.8532 26.0238C23.7761 25.9132 23.6734 25.8229 23.5538 25.7607C23.4343 25.6985 23.3014 25.6662 23.1666 25.6667H17.3332Z" stroke="#D40707" stroke-width="1.66667" stroke-linecap="round" stroke-linejoin="round"/>
</svg>
