<svg width="48" height="48" viewBox="0 0 48 48" fill="none" xmlns="http://www.w3.org/2000/svg">
<mask id="path-1-inside-1_398_1202" fill="white">
<path d="M0 16C0 7.16344 7.16344 0 16 0H32C40.8366 0 48 7.16344 48 16V32C48 40.8366 40.8366 48 32 48H16C7.16344 48 0 40.8366 0 32V16Z"/>
</mask>
<path d="M0 16C0 7.16344 7.16344 0 16 0H32C40.8366 0 48 7.16344 48 16V32C48 40.8366 40.8366 48 32 48H16C7.16344 48 0 40.8366 0 32V16Z" fill="white"/>
<path d="M16 0V1H32V0V-1H16V0ZM48 16H47V32H48H49V16H48ZM32 48V47H16V48V49H32V48ZM0 32H1V16H0H-1V32H0ZM16 48V47C7.71573 47 1 40.2843 1 32H0H-1C-1 41.3888 6.61116 49 16 49V48ZM48 32H47C47 40.2843 40.2843 47 32 47V48V49C41.3888 49 49 41.3888 49 32H48ZM32 0V1C40.2843 1 47 7.71573 47 16H48H49C49 6.61116 41.3888 -1 32 -1V0ZM16 0V-1C6.61116 -1 -1 6.61116 -1 16H0H1C1 7.71573 7.71573 1 16 1V0Z" fill="#D40707" mask="url(#path-1-inside-1_398_1202)"/>
<path d="M26.5002 15.6667H19.0002C18.5581 15.6667 18.1342 15.8423 17.8217 16.1548C17.5091 16.4674 17.3335 16.8913 17.3335 17.3334V30.6667C17.3335 31.1087 17.5091 31.5326 17.8217 31.8452C18.1342 32.1578 18.5581 32.3334 19.0002 32.3334H29.0002C29.4422 32.3334 29.8661 32.1578 30.1787 31.8452C30.4912 31.5326 30.6668 31.1087 30.6668 30.6667V19.8334L26.5002 15.6667Z" stroke="#D40707" stroke-width="1.66667" stroke-linecap="round" stroke-linejoin="round"/>
<path d="M25.6665 15.6667V19C25.6665 19.442 25.8421 19.866 26.1547 20.1785C26.4672 20.4911 26.8911 20.6667 27.3332 20.6667H30.6665" stroke="#D40707" stroke-width="1.66667" stroke-linecap="round" stroke-linejoin="round"/>
<path d="M20.6665 24.8333H22.3332" stroke="#D40707" stroke-width="1.66667" stroke-linecap="round" stroke-linejoin="round"/>
<path d="M25.6665 24.8333H27.3332" stroke="#D40707" stroke-width="1.66667" stroke-linecap="round" stroke-linejoin="round"/>
<path d="M20.6665 28.1667H22.3332" stroke="#D40707" stroke-width="1.66667" stroke-linecap="round" stroke-linejoin="round"/>
<path d="M25.6665 28.1667H27.3332" stroke="#D40707" stroke-width="1.66667" stroke-linecap="round" stroke-linejoin="round"/>
</svg>
