<svg width="44" height="44" viewBox="0 0 44 44" fill="none" xmlns="http://www.w3.org/2000/svg">
<mask id="path-1-inside-1_398_1273" fill="white">
<path d="M0 16C0 7.16344 7.16344 0 16 0H28C36.8366 0 44 7.16344 44 16V28C44 36.8366 36.8366 44 28 44H16C7.16344 44 0 36.8366 0 28V16Z"/>
</mask>
<path d="M0 16C0 7.16344 7.16344 0 16 0H28C36.8366 0 44 7.16344 44 16V28C44 36.8366 36.8366 44 28 44H16C7.16344 44 0 36.8366 0 28V16Z" fill="white"/>
<path d="M16 0V1H28V0V-1H16V0ZM44 16H43V28H44H45V16H44ZM28 44V43H16V44V45H28V44ZM0 28H1V16H0H-1V28H0ZM16 44V43C7.71573 43 1 36.2843 1 28H0H-1C-1 37.3888 6.61116 45 16 45V44ZM44 28H43C43 36.2843 36.2843 43 28 43V44V45C37.3888 45 45 37.3888 45 28H44ZM28 0V1C36.2843 1 43 7.71573 43 16H44H45C45 6.61116 37.3888 -1 28 -1V0ZM16 0V-1C6.61116 -1 -1 6.61116 -1 16H0H1C1 7.71573 7.71573 1 16 1V0Z" fill="#D40707" mask="url(#path-1-inside-1_398_1273)"/>
<path d="M21.6352 14.7217C21.6712 14.6564 21.724 14.6019 21.7882 14.5639C21.8524 14.526 21.9256 14.506 22.0002 14.506C22.0748 14.506 22.148 14.526 22.2122 14.5639C22.2764 14.6019 22.3292 14.6564 22.3652 14.7217L24.8252 19.3917C24.8839 19.4998 24.9657 19.5936 25.0649 19.6664C25.1642 19.7391 25.2783 19.789 25.399 19.8124C25.5198 19.8358 25.6443 19.8322 25.7635 19.8018C25.8827 19.7715 25.9937 19.7151 26.0885 19.6367L29.6527 16.5834C29.7211 16.5277 29.8054 16.4952 29.8935 16.4905C29.9816 16.4858 30.0688 16.5092 30.1428 16.5573C30.2167 16.6054 30.2735 16.6757 30.3049 16.7581C30.3363 16.8405 30.3408 16.9307 30.3177 17.0159L27.956 25.5542C27.9078 25.7289 27.804 25.8831 27.6602 25.9935C27.5164 26.1039 27.3406 26.1644 27.1594 26.1659H16.8419C16.6605 26.1646 16.4844 26.1042 16.3405 25.9938C16.1966 25.8834 16.0926 25.729 16.0444 25.5542L13.6835 17.0167C13.6604 16.9316 13.6649 16.8413 13.6963 16.7589C13.7277 16.6765 13.7845 16.6062 13.8584 16.5581C13.9324 16.5101 14.0197 16.4867 14.1077 16.4914C14.1958 16.496 14.2801 16.5285 14.3485 16.5842L17.9119 19.6375C18.0067 19.7159 18.1177 19.7723 18.2369 19.8027C18.3561 19.833 18.4806 19.8367 18.6014 19.8132C18.7221 19.7898 18.8362 19.7399 18.9354 19.6672C19.0346 19.5945 19.1165 19.5007 19.1752 19.3925L21.6352 14.7217Z" stroke="#D40707" stroke-width="1.66667" stroke-linecap="round" stroke-linejoin="round"/>
<path d="M16.1665 29.5H27.8332" stroke="#D40707" stroke-width="1.66667" stroke-linecap="round" stroke-linejoin="round"/>
</svg>
