<svg width="44" height="44" viewBox="0 0 44 44" fill="none" xmlns="http://www.w3.org/2000/svg">
<mask id="path-1-inside-1_236_567" fill="white">
<path d="M0 16C0 7.16344 7.16344 0 16 0H28C36.8366 0 44 7.16344 44 16V28C44 36.8366 36.8366 44 28 44H16C7.16344 44 0 36.8366 0 28V16Z"/>
</mask>
<path d="M0 16C0 7.16344 7.16344 0 16 0H28C36.8366 0 44 7.16344 44 16V28C44 36.8366 36.8366 44 28 44H16C7.16344 44 0 36.8366 0 28V16Z" fill="white"/>
<path d="M16 0V1H28V0V-1H16V0ZM44 16H43V28H44H45V16H44ZM28 44V43H16V44V45H28V44ZM0 28H1V16H0H-1V28H0ZM16 44V43C7.71573 43 1 36.2843 1 28H0H-1C-1 37.3888 6.61116 45 16 45V44ZM44 28H43C43 36.2843 36.2843 43 28 43V44V45C37.3888 45 45 37.3888 45 28H44ZM28 0V1C36.2843 1 43 7.71573 43 16H44H45C45 6.61116 37.3888 -1 28 -1V0ZM16 0V-1C6.61116 -1 -1 6.61116 -1 16H0H1C1 7.71573 7.71573 1 16 1V0Z" fill="#D40707" mask="url(#path-1-inside-1_236_567)"/>
<path d="M28.6668 22.8333C28.6668 27 25.7502 29.0833 22.2835 30.2916C22.102 30.3531 21.9048 30.3502 21.7252 30.2833C18.2502 29.0833 15.3335 27 15.3335 22.8333V17C15.3335 16.779 15.4213 16.567 15.5776 16.4107C15.7339 16.2544 15.9458 16.1666 16.1668 16.1666C17.8335 16.1666 19.9168 15.1666 21.3668 13.9C21.5434 13.7491 21.768 13.6663 22.0002 13.6663C22.2324 13.6663 22.457 13.7491 22.6335 13.9C24.0918 15.175 26.1668 16.1666 27.8335 16.1666C28.0545 16.1666 28.2665 16.2544 28.4228 16.4107C28.579 16.567 28.6668 16.779 28.6668 17V22.8333Z" stroke="#D40707" stroke-width="1.66667" stroke-linecap="round" stroke-linejoin="round"/>
</svg>
