<svg width="44" height="44" viewBox="0 0 44 44" fill="none" xmlns="http://www.w3.org/2000/svg">
<mask id="path-1-inside-1_236_524" fill="white">
<path d="M0 16C0 7.16344 7.16344 0 16 0H28C36.8366 0 44 7.16344 44 16V28C44 36.8366 36.8366 44 28 44H16C7.16344 44 0 36.8366 0 28V16Z"/>
</mask>
<path d="M0 16C0 7.16344 7.16344 0 16 0H28C36.8366 0 44 7.16344 44 16V28C44 36.8366 36.8366 44 28 44H16C7.16344 44 0 36.8366 0 28V16Z" fill="white"/>
<path d="M16 0V1H28V0V-1H16V0ZM44 16H43V28H44H45V16H44ZM28 44V43H16V44V45H28V44ZM0 28H1V16H0H-1V28H0ZM16 44V43C7.71573 43 1 36.2843 1 28H0H-1C-1 37.3888 6.61116 45 16 45V44ZM44 28H43C43 36.2843 36.2843 43 28 43V44V45C37.3888 45 45 37.3888 45 28H44ZM28 0V1C36.2843 1 43 7.71573 43 16H44H45C45 6.61116 37.3888 -1 28 -1V0ZM16 0V-1C6.61116 -1 -1 6.61116 -1 16H0H1C1 7.71573 7.71573 1 16 1V0Z" fill="#D40707" mask="url(#path-1-inside-1_236_524)"/>
<path d="M18.6665 13.6667V17.0001" stroke="#D40707" stroke-width="1.66667" stroke-linecap="round" stroke-linejoin="round"/>
<path d="M25.3335 13.6667V17.0001" stroke="#D40707" stroke-width="1.66667" stroke-linecap="round" stroke-linejoin="round"/>
<path d="M27.8333 15.3333H16.1667C15.2462 15.3333 14.5 16.0794 14.5 16.9999V28.6666C14.5 29.5871 15.2462 30.3333 16.1667 30.3333H27.8333C28.7538 30.3333 29.5 29.5871 29.5 28.6666V16.9999C29.5 16.0794 28.7538 15.3333 27.8333 15.3333Z" stroke="#D40707" stroke-width="1.66667" stroke-linecap="round" stroke-linejoin="round"/>
<path d="M14.5 20.3333H29.5" stroke="#D40707" stroke-width="1.66667" stroke-linecap="round" stroke-linejoin="round"/>
</svg>
