<svg width="48" height="48" viewBox="0 0 48 48" fill="none" xmlns="http://www.w3.org/2000/svg">
<mask id="path-1-inside-1_404_520" fill="white">
<path d="M0 16C0 7.16344 7.16344 0 16 0H32C40.8366 0 48 7.16344 48 16V32C48 40.8366 40.8366 48 32 48H16C7.16344 48 0 40.8366 0 32V16Z"/>
</mask>
<path d="M0 16C0 7.16344 7.16344 0 16 0H32C40.8366 0 48 7.16344 48 16V32C48 40.8366 40.8366 48 32 48H16C7.16344 48 0 40.8366 0 32V16Z" fill="white"/>
<path d="M16 0V1H32V0V-1H16V0ZM48 16H47V32H48H49V16H48ZM32 48V47H16V48V49H32V48ZM0 32H1V16H0H-1V32H0ZM16 48V47C7.71573 47 1 40.2843 1 32H0H-1C-1 41.3888 6.61116 49 16 49V48ZM48 32H47C47 40.2843 40.2843 47 32 47V48V49C41.3888 49 49 41.3888 49 32H48ZM32 0V1C40.2843 1 47 7.71573 47 16H48H49C49 6.61116 41.3888 -1 32 -1V0ZM16 0V-1C6.61116 -1 -1 6.61116 -1 16H0H1C1 7.71573 7.71573 1 16 1V0Z" fill="#D40707" mask="url(#path-1-inside-1_404_520)"/>
<path d="M18.9998 21.5H17.7498C17.1973 21.5 16.6674 21.2805 16.2767 20.8898C15.886 20.4991 15.6665 19.9692 15.6665 19.4166C15.6665 18.8641 15.886 18.3342 16.2767 17.9435C16.6674 17.5528 17.1973 17.3333 17.7498 17.3333H18.9998" stroke="#D40707" stroke-width="1.66667" stroke-linecap="round" stroke-linejoin="round"/>
<path d="M29 21.5H30.25C30.8025 21.5 31.3324 21.2805 31.7231 20.8898C32.1138 20.4991 32.3333 19.9692 32.3333 19.4166C32.3333 18.8641 32.1138 18.3342 31.7231 17.9435C31.3324 17.5528 30.8025 17.3333 30.25 17.3333H29" stroke="#D40707" stroke-width="1.66667" stroke-linecap="round" stroke-linejoin="round"/>
<path d="M17.3335 32.3333H30.6668" stroke="#D40707" stroke-width="1.66667" stroke-linecap="round" stroke-linejoin="round"/>
<path d="M22.3335 26.2167V28.1667C22.3335 28.625 21.9418 28.9833 21.5252 29.175C20.5418 29.625 19.8335 30.8667 19.8335 32.3333" stroke="#009966" stroke-width="1.66667" stroke-linecap="round" stroke-linejoin="round"/>
<path d="M25.6665 26.2167V28.1667C25.6665 28.625 26.0582 28.9833 26.4748 29.175C27.4582 29.625 28.1665 30.8667 28.1665 32.3333" stroke="#D40707" stroke-width="1.66667" stroke-linecap="round" stroke-linejoin="round"/>
<path d="M29 15.6667H19V21.5C19 22.8261 19.5268 24.0979 20.4645 25.0356C21.4021 25.9732 22.6739 26.5 24 26.5C25.3261 26.5 26.5979 25.9732 27.5355 25.0356C28.4732 24.0979 29 22.8261 29 21.5V15.6667Z" stroke="#D40707" stroke-width="1.66667" stroke-linecap="round" stroke-linejoin="round"/>
</svg>
