<svg width="12" height="12" viewBox="0 0 12 12" fill="none" xmlns="http://www.w3.org/2000/svg">
<g clip-path="url(#clip0_398_1262)">
<path d="M6 14C8.76142 14 11 11.7614 11 9C11 6.23858 8.76142 4 6 4C3.23858 4 1 6.23858 1 9C1 11.7614 3.23858 14 6 14Z" stroke="#1C1C1C" stroke-linecap="round" stroke-linejoin="round"/>
<path d="M6 12C7.65685 12 9 10.6569 9 9C9 7.34315 7.65685 6 6 6C4.34315 6 3 7.34315 3 9C3 10.6569 4.34315 12 6 12Z" stroke="#1C1C1C" stroke-linecap="round" stroke-linejoin="round"/>
<path d="M6 10C6.55228 10 7 9.55228 7 9C7 8.44772 6.55228 8 6 8C5.44772 8 5 8.44772 5 9C5 9.55228 5.44772 10 6 10Z" stroke="#1C1C1C" stroke-linecap="round" stroke-linejoin="round"/>
</g>
<defs>
<clipPath id="clip0_398_1262">
<rect width="12" height="12" fill="white"/>
</clipPath>
</defs>
</svg>
